<mxfile host="app.diagrams.net" agent="Mozilla/5.0 (Windows NT 10.0; Win64; x64) AppleWebKit/537.36 (KHTML, like Gecko) Chrome/137.0.0.0 Safari/537.36" version="27.1.4">
  <diagram name="第 1 页" id="yMUlH-WVhS8GSEfFP2oN">
    <mxGraphModel dx="752" dy="387" grid="1" gridSize="10" guides="1" tooltips="1" connect="1" arrows="1" fold="1" page="1" pageScale="1" pageWidth="827" pageHeight="1169" math="0" shadow="0">
      <root>
        <mxCell id="0" />
        <mxCell id="1" parent="0" />
        <mxCell id="iM4n6Fn5fozvlxk0_vRT-8" style="edgeStyle=orthogonalEdgeStyle;rounded=0;orthogonalLoop=1;jettySize=auto;html=1;entryX=0;entryY=0.5;entryDx=0;entryDy=0;" edge="1" parent="1" source="iM4n6Fn5fozvlxk0_vRT-2" target="iM4n6Fn5fozvlxk0_vRT-7">
          <mxGeometry relative="1" as="geometry" />
        </mxCell>
        <mxCell id="iM4n6Fn5fozvlxk0_vRT-2" value="&lt;p class=&quot;MsoNormal&quot;&gt;&lt;span style=&quot;mso-spacerun:&#39;yes&#39;;font-family:宋体;mso-ascii-font-family:&#39;Times New Roman&#39;;&lt;br/&gt;mso-hansi-font-family:&#39;Times New Roman&#39;;mso-bidi-font-family:&#39;Times New Roman&#39;;font-size:12.0000pt;&quot;&gt;设计工程问题&lt;/span&gt;&lt;/p&gt;" style="html=1;whiteSpace=wrap;" vertex="1" parent="1">
          <mxGeometry x="200" y="100" width="110" height="50" as="geometry" />
        </mxCell>
        <mxCell id="iM4n6Fn5fozvlxk0_vRT-9" style="edgeStyle=orthogonalEdgeStyle;rounded=0;orthogonalLoop=1;jettySize=auto;html=1;entryX=0;entryY=0.5;entryDx=0;entryDy=0;" edge="1" parent="1" source="iM4n6Fn5fozvlxk0_vRT-4" target="iM4n6Fn5fozvlxk0_vRT-7">
          <mxGeometry relative="1" as="geometry" />
        </mxCell>
        <mxCell id="iM4n6Fn5fozvlxk0_vRT-4" value="&lt;p class=&quot;MsoNormal&quot;&gt;&lt;span style=&quot;mso-spacerun:&#39;yes&#39;;font-family:宋体;mso-ascii-font-family:&#39;Times New Roman&#39;;&lt;br/&gt;mso-hansi-font-family:&#39;Times New Roman&#39;;mso-bidi-font-family:&#39;Times New Roman&#39;;font-size:12.0000pt;&quot;&gt;设计工程问题&lt;/span&gt;&lt;/p&gt;" style="html=1;whiteSpace=wrap;" vertex="1" parent="1">
          <mxGeometry x="200" y="180" width="110" height="50" as="geometry" />
        </mxCell>
        <mxCell id="iM4n6Fn5fozvlxk0_vRT-12" style="edgeStyle=orthogonalEdgeStyle;rounded=0;orthogonalLoop=1;jettySize=auto;html=1;entryX=0;entryY=0.5;entryDx=0;entryDy=0;" edge="1" parent="1" source="iM4n6Fn5fozvlxk0_vRT-5" target="iM4n6Fn5fozvlxk0_vRT-7">
          <mxGeometry relative="1" as="geometry" />
        </mxCell>
        <mxCell id="iM4n6Fn5fozvlxk0_vRT-5" value="&lt;p class=&quot;MsoNormal&quot;&gt;&lt;span style=&quot;mso-spacerun:&#39;yes&#39;;font-family:宋体;mso-ascii-font-family:&#39;Times New Roman&#39;;&lt;br/&gt;mso-hansi-font-family:&#39;Times New Roman&#39;;mso-bidi-font-family:&#39;Times New Roman&#39;;font-size:12.0000pt;&quot;&gt;制造问题数据&lt;/span&gt;&lt;/p&gt;" style="html=1;whiteSpace=wrap;" vertex="1" parent="1">
          <mxGeometry x="200" y="260" width="110" height="50" as="geometry" />
        </mxCell>
        <mxCell id="iM4n6Fn5fozvlxk0_vRT-11" style="edgeStyle=orthogonalEdgeStyle;rounded=0;orthogonalLoop=1;jettySize=auto;html=1;entryX=0;entryY=0.5;entryDx=0;entryDy=0;" edge="1" parent="1" source="iM4n6Fn5fozvlxk0_vRT-6" target="iM4n6Fn5fozvlxk0_vRT-7">
          <mxGeometry relative="1" as="geometry" />
        </mxCell>
        <mxCell id="iM4n6Fn5fozvlxk0_vRT-6" value="&lt;p class=&quot;MsoNormal&quot;&gt;&lt;span style=&quot;mso-spacerun:&#39;yes&#39;;font-family:宋体;mso-ascii-font-family:&#39;Times New Roman&#39;;&lt;br/&gt;mso-hansi-font-family:&#39;Times New Roman&#39;;mso-bidi-font-family:&#39;Times New Roman&#39;;font-size:12.0000pt;&quot;&gt;全面工程问题&lt;/span&gt;&lt;/p&gt;" style="html=1;whiteSpace=wrap;" vertex="1" parent="1">
          <mxGeometry x="200" y="340" width="110" height="50" as="geometry" />
        </mxCell>
        <mxCell id="iM4n6Fn5fozvlxk0_vRT-14" style="edgeStyle=orthogonalEdgeStyle;rounded=0;orthogonalLoop=1;jettySize=auto;html=1;entryX=0;entryY=0.5;entryDx=0;entryDy=0;" edge="1" parent="1" source="iM4n6Fn5fozvlxk0_vRT-7" target="iM4n6Fn5fozvlxk0_vRT-13">
          <mxGeometry relative="1" as="geometry" />
        </mxCell>
        <mxCell id="iM4n6Fn5fozvlxk0_vRT-7" value="数据归集" style="html=1;whiteSpace=wrap;" vertex="1" parent="1">
          <mxGeometry x="380" y="190" width="70" height="120" as="geometry" />
        </mxCell>
        <mxCell id="iM4n6Fn5fozvlxk0_vRT-16" style="edgeStyle=orthogonalEdgeStyle;rounded=0;orthogonalLoop=1;jettySize=auto;html=1;entryX=0;entryY=0.5;entryDx=0;entryDy=0;" edge="1" parent="1" source="iM4n6Fn5fozvlxk0_vRT-13" target="iM4n6Fn5fozvlxk0_vRT-15">
          <mxGeometry relative="1" as="geometry" />
        </mxCell>
        <mxCell id="iM4n6Fn5fozvlxk0_vRT-13" value="公共字段映射" style="html=1;whiteSpace=wrap;" vertex="1" parent="1">
          <mxGeometry x="500" y="190" width="70" height="120" as="geometry" />
        </mxCell>
        <mxCell id="iM4n6Fn5fozvlxk0_vRT-15" value="公共字段表" style="html=1;whiteSpace=wrap;" vertex="1" parent="1">
          <mxGeometry x="620" y="190" width="70" height="120" as="geometry" />
        </mxCell>
      </root>
    </mxGraphModel>
  </diagram>
</mxfile>
